<?xml version="1.0" encoding="utf-8"?>
<!-- Generator: Adobe Illustrator 18.0.0, SVG Export Plug-In . SVG Version: 6.00 Build 0)  -->
<!DOCTYPE svg PUBLIC "-//W3C//DTD SVG 1.1//EN" "http://www.w3.org/Graphics/SVG/1.1/DTD/svg11.dtd">
<svg version="1.1" id="Layer_1" xmlns="http://www.w3.org/2000/svg" xmlns:xlink="http://www.w3.org/1999/xlink" x="0px" y="0px"
	 viewBox="158.1 294 303.8 205" enable-background="new 158.1 294 303.8 205" xml:space="preserve">
<g>
	<g>
		<g>
			<g>
				<polygon fill="#FF9E16" points="304,362.3 328.4,346.5 304,333.3 				"/>
			</g>
			<g>
				<path fill="#FF9E16" d="M279,348.1c-1.5,1-1.5,3.1,0,3.6l18.4,11.7c2,1,4.6,0,4.6-2.6v-23.5v-4.1L279,348.1z"/>
			</g>
		</g>
	</g>
	<path fill="#0D0D0D" d="M351.4,399.6L351.4,399.6C351.4,400.1,351.4,400.1,351.4,399.6L351.4,399.6z"/>
	<g>
		<g>
			<g>
				<polygon fill="#83CAED" points="326.4,307.3 304,294 304,321.5 				"/>
			</g>
			<g>
				<polygon fill="#83CAED" points="295.3,327.7 271.3,313.9 273.4,341.9 				"/>
			</g>
			<g>
				<path fill="#83CAED" d="M308,370.5l15.3,9.7c1,0.5,2.5,0,2.5-1.5l2-21.4L308,370.5z"/>
			</g>
			<g>
				<polygon fill="#83CAED" points="337.1,351.6 358.5,363.4 335.1,379.2 				"/>
			</g>
			<g>
				<path fill="#83CAED" d="M339.7,346.5l24-14.8l-4.6,29.6l-19.4-11.2C338.1,349.6,338.1,347.5,339.7,346.5z"/>
			</g>
			<g>
				<path fill="#83CAED" d="M363.1,329.7l-26-15.8l-2,28.1c0,2,2,3.6,4.1,2.5L363.1,329.7z"/>
			</g>
			<g>
				<path fill="#83CAED" d="M243.3,329.7l26-15.8l2,28.1c0,2-2,3.6-4.1,2.5L243.3,329.7z"/>
			</g>
			<g>
				<path fill="#83CAED" d="M272.3,311.9l22.4,12.8c3.6,2,7.6-0.5,7.6-4.1V294L272.3,311.9z"/>
			</g>
			<g>
				<path fill="#83CAED" d="M335.1,313.9l-29.6,17.3l22.9,12.8c2,1,4.6-0.5,4.6-2.5L335.1,313.9z"/>
			</g>
			<g>
				<path fill="#83CAED" d="M336.1,381.2c-1.5,1-2,3.1-1.5,4.6c0.5,0.5,1,1.5,1.5,2l16.3,10.2l0,0l0,0c0.5-1,0.5-2,1-3.1l4.6-29.1
					L336.1,381.2z"/>
			</g>
		</g>
	</g>
	<g>
		<g>
			<g>
				<path fill="#397EAC" d="M281,418.4l18.9-12.8c1-0.5,2,0,2,1v26.5L281,418.4z"/>
			</g>
			<g>
				<path fill="#397EAC" d="M298.9,403.6L280,416.4c-1,0.5-2,0-2-1l-2-27L298.9,403.6z"/>
			</g>
			<g>
				<path fill="#397EAC" d="M282.5,382.7l17.3-10.7c1-0.5,2.5,0,2.5,1.5V396L282.5,382.7z"/>
			</g>
			<g>
				<path fill="#397EAC" d="M273.4,388.4l1-0.5l2,27.5l-18.9-13.3c-1-0.5-1.5-1.5-2-2l0,0L273.4,388.4z"/>
			</g>
		</g>
	</g>
	<g>
		<g>
			<g>
				<polygon fill="#00A8E1" points="268.8,351.6 247.9,363.4 271.3,379.2 				"/>
			</g>
			<g>
				<path fill="#00A8E1" d="M266.7,346.5l-24-14.8l4.6,29.6l19.4-11.2C268.3,349.6,268.3,347.5,266.7,346.5z"/>
			</g>
			<g>
				<path fill="#00A8E1" d="M297.3,365.9l-19.9-12.2l2,25c0,1.5,1.5,2,2.6,1.5l14.8-9.2C299.4,369.5,299.4,366.9,297.3,365.9z"/>
			</g>
			<g>
				<path fill="#00A8E1" d="M270.3,381.2c1.5,1,2,3.1,1.5,4.6c-0.5,0.5-1,1.5-1.5,2L254,398l0,0l0,0c-0.5-1-0.5-2-1-3.1l-4.6-29.1
					L270.3,381.2z"/>
			</g>
		</g>
	</g>
	<g>
		<g>
			<g>
				<path fill="#006098" d="M325.4,418.4l-18.9-12.8c-1-0.5-2,0-2,1v26.5L325.4,418.4z"/>
			</g>
			<g>
				<path fill="#006098" d="M307,403.6l18.9,12.8c1,0.5,2,0,2-1l2-27L307,403.6z"/>
			</g>
			<g>
				<path fill="#006098" d="M323.8,382.7L306.5,372c-1-0.5-2.5,0-2.5,1.5V396L323.8,382.7z"/>
			</g>
			<g>
				<path fill="#006098" d="M333,388.4l-1-0.5l-2,27.5l18.9-13.3c1-0.5,1.5-1.5,2-2l0,0L333,388.4z"/>
			</g>
			<g>
				<g>
					<g>
						<path fill="#006098" d="M279,491.9h-15.8v-28.6c0-3.6-2.6-4.1-3.6-4.1h-4.1c0,0-0.5,0-0.5,0.5V498c0,0,0,0.5,0.5,0.5H282
							c0,0,0.5,0,0.5-0.5C282.5,497.5,282.5,491.9,279,491.9z"/>
						<path fill="#006098" d="M406,483.2c1-0.5,5.1-3.1,6.6-5.1c1.5-2,2.5-4.1,2-7.1c0-2.5-0.5-4.6-2-6.6c-1.5-1.5-3.1-3.1-5.6-4.1
							c-1-0.5-2.6-1-4.6-1c-1.5,0-3.6-0.5-5.6-0.5H384c0,0-0.5,0-0.5,0.5V498c0,0,0,0.5,0.5,0.5h6.6c0,0,0.5,0,0.5-0.5v-13.8h3.6
							c2.6,0,4.6,2,4.6,2l0,0c3.1,3.6,9.2,11.2,10.2,11.7h8.2h0.5v-0.5C418.2,497.5,408,485.8,406,483.2z M406.5,468.4
							c0.5,0.5,0.5,1.5,0.5,2.5c0,1,0,2-0.5,3.1c-1,1.5-2.5,2.5-4.1,3.6c-1.5,0.5-3.1,0.5-3.6,0.5c-0.5,0-0.5,0-0.5,0h-6.1v-12.8
							h5.6c1.5,0,3.1,0,4.1,0c1,0,2,0.5,2.5,0.5C404.9,467.4,406,467.9,406.5,468.4z"/>
						<path fill="#006098" d="M192.8,478.1h-16.3c0,0,0,0-0.5,0c-0.5,0,0,0,0,0.5c0,0.5,0,6.1,4.1,6.1h8.7v7.1
							c-2,0.5-4.1,0.5-5.1,0.5h-0.5c-1,0-1.5,0-2.6,0c-4.6,0-7.6-1-10.2-3.1s-3.6-5.6-3.6-9.7c0-2,0.5-4.1,1-6.1
							c0.5-1.5,2-3.1,3.1-4.6c1.5-1,3.1-2,4.6-2.5c2-0.5,4.1-1,6.1-1c0.5,0,1.5,0,1.5,0c1.5,0,5.6,1,6.6,1.5c0.5,0,0.5,0,1,0
							c3.1,0,4.6-4.1,4.6-4.6v-0.5c0,0-6.6-3.1-14.3-3.1c-2,0-4.6,0-6.6,0.5c-2,0.5-4.1,1-5.6,2c-1.5,1-3.1,2-4.6,3.1
							c-1.5,1-2.6,2.5-3.1,4.1c-1,1.5-1.5,3.1-2,5.1c-1,2-1,4.1-1,6.1c0,3.1,0.5,5.6,1.5,7.6c1,2.5,2.6,4.6,4.1,6.1
							c2,1.5,4.1,3.1,7.1,4.1c2.6,1,6.1,1.5,9.7,1.5c1,0,2.6,0,3.6,0s2.6-0.5,3.6-0.5s2-0.5,3.1-0.5c3.1-1,4.6-1.5,5.1-1.5h0.5
							c0,0,0,0,0-0.5v-13.8C196.3,479.6,194.8,478.1,192.8,478.1z"/>
						<path fill="#006098" d="M228.5,459.2h-5.6h-0.5L205,497.5c0,0,0,0,0,0.5c0,0,0,0,0.5,0h8.2h0.5l4.6-9.7h11.7
							c4.6,0,6.1,4.1,6.1,4.1l3.1,5.6c0,0,0,0,0.5,0h7.6c0,0,0,0,0.5,0s0,0,0-0.5L228.5,459.2L228.5,459.2z M220.8,482.2l1.5-3.1
							c1-2.5,2.6-5.6,3.6-9.7c1.5,3.6,3.1,7.1,4.1,9.7l1.5,3.1H220.8z"/>
						<path fill="#006098" d="M372.8,468.9c-1-1.5-2-3.1-3.1-4.1c-1.5-1-2.6-2.6-4.6-3.1c-1.5-1-3.6-1.5-5.6-2s-4.1-0.5-6.1-0.5l0,0
							l0,0c-2,0-4.1,0-6.1,0.5c-2,0.5-4.1,1-5.6,2c-1.5,1-3.1,2-4.6,3.1c-1.5,1-2.5,2.5-3.1,4.1c-1,1.5-1.5,3.1-2,5.1
							c-0.5,1.5-0.5,3.6-0.5,5.6c0,3.1,0.5,5.6,1.5,7.6c1,2.5,2.6,4.6,4.1,6.1c2,1.5,4.1,3.1,7.1,4.1c2.5,1,6.1,1.5,9.7,1.5
							c3.6,0,6.6-0.5,9.7-1.5c2.6-1,5.1-2,6.6-4.1c2-1.5,3.1-3.6,4.1-6.1c1-2.6,1.5-5.1,1.5-7.6c0-2,0-4.1-0.5-5.6
							C374.3,472,373.8,470.5,372.8,468.9z M353.4,492.4c-4.1,0-7.6-1-10.2-3.1c-2.6-2-3.6-5.6-3.6-9.7c0-2,0.5-4.1,1-6.1
							c0.5-1.5,2-3.1,3.1-4.6c1.5-1,3.1-2,4.6-2.5c1.5-0.5,3.1-0.5,5.1-1c2,0,3.6,0.5,5.1,1c2,0.5,3.6,1.5,4.6,2.5
							c1.5,1,2.6,2.5,3.1,4.6c0.5,1.5,1,3.6,1,6.1c0,4.6-1.5,7.6-3.6,9.7C361.1,491.4,357.5,492.4,353.4,492.4z"/>
						<path fill="#006098" d="M299.9,468.9c1.5-1,3.1-2,4.6-2.5c2-0.5,4.1-1,6.1-1c0.5,0,1.5,0,1.5,0c2,0,5.6,1,6.6,1.5
							c0.5,0,0.5,0,1,0c3.1,0,4.6-4.1,4.6-4.6v-0.5c0,0-6.6-3.1-14.3-3.1c-2,0-4.6,0-6.6,0.5c-2,0.5-4.1,1-5.6,2
							c-1.5,1-3.1,2-4.6,3.1c-1.5,1-2.5,2.5-3.1,4.1c-1,1.5-1.5,3.1-2,5.1c-0.5,1.5-0.5,3.1-0.5,5.1l0,0l0,0c0,2,0,3.6,0.5,5.1
							c0.5,2,1,3.6,2,5.1c1,1.5,2,3.1,3.1,4.1c1.5,1,2.6,2.6,4.6,3.1c1.5,1,3.6,1.5,5.6,2c2,0.5,4.1,0.5,6.6,0.5
							c7.1,0,13.8-3.1,14.3-3.1v-0.5c0,0-1.5-4.6-4.6-4.6c-0.5,0-0.5,0-1,0c-1,0.5-5.1,1-6.6,1.5c0,0-1,0-1.5,0c-2,0-4.1-0.5-6.1-1
							c-2-0.5-3.6-1.5-4.6-2.5c-1.5-1-2.5-2.5-3.1-4.6c-1-1-1-3.1-1-5.1s0.5-4.1,1-5.6C297.3,471.5,298.3,469.9,299.9,468.9z"/>
						<path fill="#006098" d="M461.5,497.5c0,0-10.2-12.2-11.7-14.3c1-0.5,5.1-3.1,6.6-5.1c1.5-2,2.6-4.1,2-7.1c0-2.5-0.5-4.6-2-6.6
							c-1.5-1.5-3.1-3.1-5.6-4.1c-1-0.5-2.6-1-4.6-1c-1.5,0-3.6-0.5-5.6-0.5h-12.8c0,0-0.5,0-0.5,0.5V498c0,0,0,0.5,0.5,0.5h6.6
							c0,0,0.5,0,0.5-0.5v-13.8h3.6c2.6,0,4.6,2,4.6,2l0,0c3.1,3.6,9.2,11.2,10.2,11.7h8.2C461.5,498,461.5,498,461.5,497.5
							C462.1,498,462.1,497.5,461.5,497.5z M449.8,468.4c0.5,0.5,0.5,1.5,0.5,2.5c0,1,0,2-0.5,3.1c-1,1.5-2.6,2.5-4.1,3.6
							c-1.5,0.5-3.1,0.5-3.6,0.5c-0.5,0-0.5,0-0.5,0h-6.1v-12.8h6.1c1.5,0,3.1,0,4.1,0c1,0,2,0.5,2.5,0.5
							C448.8,467.4,449.3,467.9,449.8,468.4z"/>
					</g>
				</g>
			</g>
		</g>
	</g>
</g>
</svg>
